<?xml version="1.0" encoding="UTF-8" standalone="no"?>
<!-- Created with Inkscape (http://www.inkscape.org/) -->

<svg
   width="105.52067mm"
   height="161.47418mm"
   viewBox="0 0 105.52067 161.47418"
   version="1.1"
   id="svg5"
   xml:space="preserve"
   inkscape:version="1.2.2 (b0a8486541, 2022-12-01)"
   sodipodi:docname="BitIcon.svg"
   xmlns:inkscape="http://www.inkscape.org/namespaces/inkscape"
   xmlns:sodipodi="http://sodipodi.sourceforge.net/DTD/sodipodi-0.dtd"
   xmlns="http://www.w3.org/2000/svg"
   xmlns:svg="http://www.w3.org/2000/svg"><sodipodi:namedview
     id="namedview7"
     pagecolor="#ffffff"
     bordercolor="#000000"
     borderopacity="0.25"
     inkscape:showpageshadow="2"
     inkscape:pageopacity="0.0"
     inkscape:pagecheckerboard="0"
     inkscape:deskcolor="#d1d1d1"
     inkscape:document-units="mm"
     showgrid="false"
     inkscape:zoom="1.1893044"
     inkscape:cx="743.29164"
     inkscape:cy="264.4403"
     inkscape:window-width="3374"
     inkscape:window-height="1371"
     inkscape:window-x="66"
     inkscape:window-y="32"
     inkscape:window-maximized="1"
     inkscape:current-layer="layer1" /><defs
     id="defs2" /><g
     inkscape:label="Layer 1"
     inkscape:groupmode="layer"
     id="layer1"
     transform="translate(-45.510735,-85.360037)"><path
       style="fill:none;stroke:#000000;stroke-width:10.5;stroke-dasharray:none;stroke-opacity:1"
       d="m 75.803555,201.37407 c -2.650591,-0.57118 -6.731323,-2.53113 -7.715192,-4.15426 -0.60235,-1.0433 -0.110109,-30.07694 -0.110109,-30.07694 l -9.002625,-5.05587 -6.099228,-2.92684 c -2.309866,-1.39763 -1.6667,-2.80027 -1.455899,-4.29821 1.104085,-7.84557 2.422259,-24.40943 1.946617,-25.35841 -0.609809,-1.21667 -1.084604,-0.87327 -1.288137,-2.43155 -0.203533,-1.55828 1.611458,-1.39459 1.844507,-2.15967 0.233048,-0.76509 0.0359,-1.2319 -0.225716,-1.94556 -0.261615,-0.71367 -1.201121,-1.25371 -1.441689,-2.16614 -0.240567,-0.91242 0.4104,-1.8025 0.21905,-3.05175 -0.191349,-1.24925 -2.028965,-2.60438 -1.659439,-4.20791 0.369525,-1.60354 3.565498,-2.17113 3.942987,-3.61609 0.377489,-1.44496 -1.490176,-2.36599 -1.127386,-3.43014 0.36279,-1.06414 1.721623,-1.14602 2.594329,-1.76013 0.872707,-0.61411 2.049208,-1.03478 2.639845,-1.92585 0.590638,-0.89107 0.09869,-2.40143 0.717879,-3.06363 0.619193,-0.662201 1.511092,-0.265016 2.192367,-0.671634 0.681275,-0.406618 0.724679,-1.511744 1.755993,-1.733403 1.031314,-0.221659 2.781417,1.441969 3.620291,1.344152 0.838874,-0.09782 0.435139,-0.120005 1.003326,-0.668403 0.568187,-0.548398 0.787552,-2.40699 2.061405,-2.868565 1.273853,-0.461575 3.144263,1.418269 4.451295,1.148095 1.307032,-0.270174 1.336737,-2.13872 2.69447,-2.091606 1.357733,0.04711 2.328169,2.90955 3.534022,3.159281 1.205853,0.249731 1.812411,-1.000914 2.513037,-0.835709 0.700626,0.165205 0.696124,0.590639 1.182797,1.179914 0.486673,0.589275 0.181442,2.470528 1.631481,2.415528 1.450039,-0.055 1.797393,-4.043552 2.868703,-5.031235 1.07131,-0.987683 3.429417,-0.603189 6.019849,-1.509611 2.590431,-0.906422 6.055545,-2.306965 8.782195,-2.971354 2.72666,-0.664388 3.17131,4.802988 3.58418,6.90499 0.41287,2.102002 -2.18291,4.2091 0.15534,5.5474 2.33825,1.3383 6.19004,-4.091215 9.29991,-5.118315 3.10987,-1.0271 6.76599,-1.571277 8.95314,-1.214832 2.18715,0.356445 2.54586,1.829258 3.82177,1.883831 1.27591,0.05457 2.15453,-1.412186 3.16839,-1.23794 1.01386,0.174246 1.37267,1.573176 2.09599,1.812083 0.72332,0.238907 1.2171,-0.446395 1.79477,-0.134604 0.57767,0.311791 0.53544,1.457567 1.0368,1.870747 0.50136,0.41318 1.02545,-0.1241 1.67329,0.54306 0.64784,0.66716 0.77447,2.8203 1.0721,3.66695 0.29763,0.84665 0.12119,1.12531 0.59707,1.44572 0.47588,0.32041 1.19124,-0.40056 1.87799,0.0113 0.68675,0.41186 1.3288,1.44883 1.39382,2.57343 0.065,1.1246 -1.70021,2.69811 -1.42459,3.55762 0.27562,0.85951 0.84238,0.20762 1.33372,0.85354 0.49134,0.64592 1.13536,2.07044 0.96822,3.14 -0.16714,1.06956 -1.6433,1.92136 -1.83626,2.63213 -0.19296,0.71077 -0.2042,0.77322 0.0954,1.20585 0.2996,0.43263 1.3563,0.27266 1.76364,0.82678 0.40734,0.55412 0.47337,1.42693 0.29403,2.15863 -0.17934,0.7317 -1.38861,1.1965 -1.35308,1.91107 0.0355,0.71457 1.08738,0.83427 1.27989,1.47272 0.19251,0.63845 -0.004,1.43912 -0.26523,2.03264 -0.26088,0.59352 -1.09841,0.85422 -1.18331,1.40916 -0.0849,0.55494 0.47809,0.0826 0.58793,1.41067 0.10984,1.32806 -1.93839,11.26947 -1.92561,15.53808 0.0128,4.26861 1.55378,8.81976 0.75485,9.95242 -0.79893,1.13267 -7.26701,5.53479 -7.96436,5.26107 -0.69735,-0.27372 -1.061,-0.84887 -1.65453,-0.84887 -0.59353,0 -6.43912,5.58223 -6.43912,5.58223 l 1.38341,0.45537 c 0,0 0.83343,27.78192 0.0169,29.1962 -0.81653,1.41428 -5.22789,3.89939 -7.69734,4.56108 -2.46945,0.66169 -43.556294,0.38195 -45.350145,-0.0987 z"
       id="path16343"
       sodipodi:nodetypes="cccccsszzzzzzzzzzzzzzzzzzzzzzzzzzzzzzzzzzzzzzzzzzzzzzzzzzzzzzzcczzcc" /><path
       style="fill:none;stroke:#000000;stroke-width:10.5;stroke-dasharray:none;stroke-opacity:1"
       d="m 76.332722,201.37408 3.258092,34.72285 c 0,0 3.716135,5.48729 20.835836,5.48729 17.1197,0 18.91724,-6.66169 18.91724,-6.66169 l 2.33898,-33.44975"
       id="path17087"
       sodipodi:nodetypes="cczcc" /><path
       style="fill:none;stroke:#000000;stroke-width:10.5;stroke-dasharray:none;stroke-opacity:1"
       d="m 86.223831,100.12277 c -3.555837,8.35362 -4.873933,17.19292 -6.515782,26.0501 -7.57705,27.89303 -16.603219,29.3882 -4.249397,41.83219 l 21.625587,0.43639 c -13.495582,-13.23937 -7.912775,-10.12726 1.683223,-40.79804 7.326388,-4.41903 2.786598,-11.16997 8.148258,-25.19207"
       id="path17089"
       sodipodi:nodetypes="cccccc" /><path
       style="fill:none;stroke:#000000;stroke-width:10.5;stroke-linecap:round;stroke-linejoin:round;stroke-dasharray:none;stroke-opacity:1"
       d="m 67.978254,167.14287 7.480398,0.86219 20.976859,0.4233 12.988799,0.19834 18.02642,-1.36656"
       id="path20017"
       sodipodi:nodetypes="ccccc" /></g></svg>
