<?xml version="1.0" encoding="UTF-8" standalone="no"?>
<!-- Created with Inkscape (http://www.inkscape.org/) -->

<svg
   width="105.52067mm"
   height="161.47418mm"
   viewBox="0 0 105.52067 161.47418"
   version="1.1"
   id="svg5"
   xml:space="preserve"
   inkscape:version="1.2.2 (b0a8486541, 2022-12-01)"
   sodipodi:docname="BitIconContour.svg"
   xmlns:inkscape="http://www.inkscape.org/namespaces/inkscape"
   xmlns:sodipodi="http://sodipodi.sourceforge.net/DTD/sodipodi-0.dtd"
   xmlns="http://www.w3.org/2000/svg"
   xmlns:svg="http://www.w3.org/2000/svg"><sodipodi:namedview
     id="namedview7"
     pagecolor="#ffffff"
     bordercolor="#000000"
     borderopacity="0.25"
     inkscape:showpageshadow="2"
     inkscape:pageopacity="0.0"
     inkscape:pagecheckerboard="0"
     inkscape:deskcolor="#d1d1d1"
     inkscape:document-units="mm"
     showgrid="false"
     inkscape:zoom="1.1893044"
     inkscape:cx="743.29164"
     inkscape:cy="264.4403"
     inkscape:window-width="3374"
     inkscape:window-height="1371"
     inkscape:window-x="66"
     inkscape:window-y="32"
     inkscape:window-maximized="1"
     inkscape:current-layer="layer1" /><defs
     id="defs2" /><g
     inkscape:label="Layer 1"
     inkscape:groupmode="layer"
     id="layer1"
     transform="translate(-45.510735,-85.360037)"><g
       id="g25406"
       transform="matrix(1,0,0,-1,0,332.19476)"><path
         style="color:#000000;fill:#000000;-inkscape-stroke:none"
         d="m 104.48633,85.380859 c -0.63006,-0.0477 -1.25332,-0.01258 -1.83399,0.128907 -3.381444,0.82394 -6.896677,2.285532 -9.273434,3.117187 -0.608032,0.212758 -1.381655,0.320342 -2.544922,0.476563 -1.163266,0.15622 -3.104146,0.103742 -5.300781,2.128906 -0.187431,0.1728 -0.219199,0.29204 -0.369141,0.453125 -0.183187,-0.0707 -0.376975,-0.227056 -0.548828,-0.267578 -0.812887,-0.191676 -1.567925,-0.140366 -2.24414,-0.0293 -0.18321,-0.203344 -0.233164,-0.323697 -0.484375,-0.556641 -0.780534,-0.723773 -2.182635,-1.800082 -4.341797,-1.875 -1.484591,-0.05152 -3.14883,0.602557 -4.144531,1.353516 -1.064674,-0.520257 -2.502052,-0.994822 -4.972657,-0.09961 -1.295558,0.469441 -2.2057,1.206926 -2.867187,1.953125 -0.772691,-0.18066 -1.717114,-0.261305 -3.132813,0.04297 -1.601465,0.344201 -2.702956,1.324208 -3.476562,2.169922 -0.979957,0.248619 -2.174011,0.682608 -3.203125,1.783203 -1.474248,1.576654 -1.680004,2.77332 -1.716797,3.677735 -0.266115,0.200731 -0.367689,0.280891 -0.826172,0.603521 0.522603,-0.36775 0.261995,-0.19543 -0.685547,0.24609 -0.947542,0.44152 -3.043299,1.72529 -3.857422,4.11328 -0.402475,1.18056 -0.298617,2.3083 -0.08789,3.28711 -1.097722,0.68849 -2.289919,1.7345 -2.875,4.27344 -0.685073,2.97282 0.665826,5.2164 1.291015,6.21094 0.08355,0.1329 0.06754,0.14065 0.126953,0.2539 -0.154585,0.6673 -0.355657,1.72652 0.0625,3.3125 0.153613,0.58263 0.389994,0.94935 0.607422,1.37305 -0.751652,1.26138 -1.08275,2.94873 -0.914062,4.24023 0.145524,1.11416 0.751994,2.49208 1.330078,3.42188 -0.004,0.394 -0.0046,0.77114 -0.0293,1.375 -0.06949,1.70006 -0.221185,4.06361 -0.421875,6.64062 -0.401381,5.15402 -1.008125,11.23799 -1.529297,14.94141 -0.03424,0.24328 -0.533667,1.43554 -0.216797,3.6582 0.316871,2.22266 2.14723,4.65005 4.152344,5.86328 l 0.216797,0.13086 6.177734,2.96485 6.138672,3.44726 c -0.03435,2.18922 -0.09702,5.72186 -0.134765,11.56055 -0.024,3.71244 -0.02774,7.45864 0.01172,10.39453 0.01973,1.46795 0.04961,2.72507 0.09961,3.73633 0.025,0.50563 0.05218,0.94038 0.101562,1.39258 0.02469,0.2261 0.05093,0.45085 0.113281,0.76953 0.06235,0.31868 -0.03897,0.58934 0.658204,1.79687 l 0.0293,0.0469 0.0293,0.0488 c 1.674204,2.762 3.432386,3.43968 5.304688,4.41015 1.837676,0.95253 3.732902,1.68221 5.685547,2.11524 1.000025,0.25036 1.170295,0.20054 1.621093,0.23242 0.491021,0.0347 1.063023,0.0624 1.744141,0.0898 1.362236,0.0549 3.146194,0.10238 5.238281,0.14453 4.184176,0.0843 9.584273,0.14422 15.009766,0.16797 5.425499,0.0238 10.868239,0.0112 15.148439,-0.0488 2.1401,-0.03 3.98406,-0.0709 5.42774,-0.1289 0.72183,-0.029 1.34012,-0.0608 1.88672,-0.10352 0.54659,-0.0428 0.79013,0.005 1.8457,-0.27734 2.06695,-0.55384 3.9184,-1.46429 5.75195,-2.53125 0.91678,-0.53348 1.78781,-1.0988 2.61524,-1.74414 0.82743,-0.64534 1.6248,-1.18075 2.51953,-2.73047 1.02971,-1.78353 0.71799,-1.96719 0.78711,-2.46875 0.0691,-0.50156 0.1062,-0.96717 0.13867,-1.49219 0.0649,-1.05004 0.10018,-2.3055 0.11914,-3.7539 0.0379,-2.89682 0.009,-6.53034 -0.0449,-10.11719 -0.10184,-6.82407 -0.28207,-12.82576 -0.30078,-13.45703 0.24719,-0.2239 0.43397,-0.3788 0.67187,-0.58985 0.93798,0.16017 1.61568,0.0935 2.01758,0.0117 0.55774,-0.11354 0.88726,-0.23938 1.1875,-0.35742 0.60047,-0.23608 1.042,-0.46873 1.51367,-0.72656 0.94334,-0.51567 1.92674,-1.13449 2.92188,-1.80078 0.99513,-0.66629 1.97717,-1.3659 2.83984,-2.03711 0.86267,-0.67122 1.34914,-0.75619 2.54883,-2.45703 1.61245,-2.28601 1.2268,-3.64691 1.17383,-4.7168 -0.053,-1.06989 -0.20227,-1.98656 -0.35157,-2.92969 -0.29858,-1.88626 -0.61266,-3.8395 -0.61718,-5.34766 -0.004,-1.2824 0.44629,-4.90984 0.93554,-8.04687 0.24463,-1.56851 0.49003,-3.06593 0.67578,-4.31445 0.0929,-0.62427 0.17222,-1.18139 0.23047,-1.70313 0.0583,-0.52173 0.15755,-0.78863 0.0664,-1.89062 -2.9e-4,-0.003 -0.002,-0.008 -0.002,-0.0117 0.0569,-0.11413 0.11481,-0.13454 0.16992,-0.25977 l 0.002,-0.002 c 0.57135,-1.29805 1.31177,-2.91809 0.48438,-5.66211 -0.0198,-0.0657 -0.0514,-0.0988 -0.0723,-0.16211 0.065,-0.20077 0.16243,-0.2253 0.21875,-0.45508 0.43335,-1.76803 0.52851,-3.66949 -0.76953,-5.82617 0.18851,-0.47495 0.43852,-0.78162 0.54101,-1.4375 0.45589,-2.91732 -0.23953,-4.41212 -1.16796,-5.80859 0.23905,-0.69559 0.41899,-1.55368 0.34375,-2.85547 -0.16924,-2.92716 -1.15318,-5.10479 -3.93555,-6.77344 -0.16073,-0.0964 -0.32216,-0.11832 -0.48438,-0.19531 -0.11902,-0.90891 -0.005,-2.031173 -1.99609,-4.082035 -0.36269,-0.37351 -0.91851,-0.561193 -1.41797,-0.824219 -0.35775,-0.789339 -0.99708,-1.70676 -2.56445,-2.552734 -0.73872,-0.398716 -1.48351,-0.538207 -2.19531,-0.595703 -0.7252,-0.678697 -1.71429,-1.364059 -3.30079,-1.636719 -1.80467,-0.310158 -2.99871,0.05493 -3.8789,0.503906 -0.86684,-0.484373 -1.91108,-0.95364 -3.1543,-1.15625 -3.94113,-0.642296 -7.69628,0.171959 -11.44531,1.410156 -1.33279,0.440181 -2.18621,1.048186 -3.0625,1.634766 -0.15669,-0.99071 -0.20335,-1.73653 -0.67773,-3.193359 -0.37909,-1.164167 -0.84368,-2.488373 -2.20313,-3.91211 -1.01959,-1.067802 -2.96725,-1.964333 -4.85742,-2.107422 z m 33.63281,9.595703 c 0.34751,0.293604 0.34984,0.436989 0.0859,0.0918 -0.014,-0.01832 -0.0703,-0.07117 -0.0859,-0.0918 z m 0.48047,0.873047 c -0.34921,-9.18e-4 -6e-4,0.0016 0.58789,0.134766 -0.16476,-0.02477 -0.49233,-0.134514 -0.58789,-0.134766 z m -36.61523,0.935547 c 0.0584,0.330197 0.11579,0.557678 0.17968,0.916016 -0.0282,0.09853 -0.083,0.498301 -0.33203,1.279297 -0.25855,0.810954 -0.69998,2.156441 -0.2793,4.072261 0.42068,1.91583 2.00917,3.72878 3.47266,4.56641 2.45215,1.40349 5.2604,0.8262 6.78906,0.12891 1.52867,-0.69729 2.53254,-1.514 3.46485,-2.26172 1.86462,-1.49545 3.7488,-2.70461 3.30078,-2.55664 2.40515,-0.79435 5.75182,-1.05865 6.33203,-1.00781 0.39599,0.32728 1.99385,1.82721 4.57226,1.9375 0.93851,0.0401 1.57083,-0.21018 2.24415,-0.41407 0.4298,0.25382 0.92488,0.50631 1.59765,0.72852 0.19094,0.0631 0.33186,-1.3e-4 0.51953,0.041 0.24592,0.27104 0.25925,0.46157 0.6211,0.75977 0.25146,0.20724 0.50632,0.19789 0.77343,0.34766 0.061,0.41619 0.0367,0.64031 0.35743,1.55273 -0.0186,-0.0529 -0.1078,-0.36238 0.084,0.42383 0.18029,0.73908 1.31594,2.59211 2.3418,3.41992 -0.3005,0.85389 -0.55607,1.95667 -0.0273,3.60547 0.18444,0.57516 0.61687,1.29933 1.17774,1.99609 -0.26462,0.467 -0.52721,0.72376 -0.7793,1.65235 -0.0999,0.36803 -0.41403,0.87021 -0.31055,2.42968 0.10349,1.55948 0.92165,2.80185 1.15625,3.14063 0.0318,0.0459 0.0601,0.0573 0.0918,0.10156 -0.19822,0.61317 -0.35266,1.29795 -0.31445,2.06641 0.0341,0.68643 0.2348,1.35905 0.49023,1.96679 -0.25907,0.51437 -0.48645,1.11466 -0.60547,1.89258 -0.0918,0.60003 0.0965,1.72294 0.46485,2.8125 -0.0357,0.28351 -0.0732,0.58071 -0.13672,1.00781 -0.16699,1.1224 -0.41196,2.62577 -0.66406,4.24219 -0.5042,3.23284 -1.07144,6.70911 -1.0625,9.69531 0.008,2.76046 0.47072,5.21937 0.74609,6.95899 0.0396,0.25042 0.0378,0.30415 0.0684,0.51953 -0.53697,0.4014 -1.11589,0.82934 -1.75,1.25391 -0.42814,0.28666 -0.73642,0.45967 -1.11914,0.69531 -0.49397,-0.14032 -0.93453,-0.32813 -1.5586,-0.32813 -2.09446,0 -2.30117,0.49525 -2.67382,0.69727 -0.37266,0.20202 -0.58764,0.35453 -0.79688,0.50195 -0.41848,0.29485 -0.76264,0.57085 -1.13672,0.88086 -0.74815,0.62002 -1.56825,1.35009 -2.36718,2.07617 -1.59788,1.45217 -3.0918,2.87891 -3.0918,2.87891 l -6.33008,6.04688 6.17383,2.0332 c 0.0646,2.33408 0.15263,5.10262 0.23047,10.31836 0.0528,3.53541 0.0804,7.11221 0.0449,9.82226 -0.0146,1.11682 -0.0456,1.95092 -0.0801,2.67383 -0.28134,0.19202 -0.5158,0.36765 -0.88086,0.58008 -1.14098,0.66395 -2.5649,1.25151 -3.04687,1.40039 -0.0374,0.005 -0.0497,0.0107 -0.0879,0.0137 -0.32745,0.0256 -0.84682,0.0543 -1.48828,0.0801 -1.28294,0.0515 -3.06722,0.0938 -5.1543,0.12305 -4.17417,0.0586 -9.57791,0.0704 -14.957033,0.0469 -5.37912,-0.0236 -10.74246,-0.0834 -14.84375,-0.16601 -2.050645,-0.0413 -3.789645,-0.0888 -5.027344,-0.13868 -0.618849,-0.0249 -1.11666,-0.0504 -1.425781,-0.0723 -0.309121,-0.0219 -0.856077,-0.20777 0.210937,0.0781 l -0.125,-0.0332 -0.126953,-0.0273 c -0.658817,-0.14197 -2.097151,-0.65286 -3.173828,-1.21094 -0.260811,-0.13519 -0.392908,-0.27711 -0.601562,-0.4375 -0.02657,-0.73352 -0.05388,-1.5066 -0.06836,-2.58398 -0.03765,-2.80134 -0.03353,-6.50918 -0.0098,-10.18555 0.04753,-7.35275 0.169921,-14.5918 0.169921,-14.5918 l 0.05469,-3.13281 -11.882813,-6.67188 -4.734375,-2.27148 c 0.56751,-4.13171 1.153466,-9.97528 1.556641,-15.15234 0.207408,-2.66327 0.364968,-5.10962 0.443359,-7.02735 0.0392,-0.95886 0.06029,-1.77591 0.05078,-2.50195 -0.0048,-0.36302 -0.01345,-0.69558 -0.05078,-1.09961 -0.03158,-0.34177 0.02257,-0.69625 -0.419921,-1.73828 0.243932,-0.39368 0.541713,-0.67183 0.701171,-1.19531 0.646973,-2.124 -0.09547,-4.67323 -0.318359,-5.28125 -0.312873,-0.8535 -0.650719,-1.38127 -0.951172,-1.78516 0.08796,-0.65786 0.13605,-1.45715 -0.01172,-2.42187 -0.135455,-0.88434 -0.379986,-1.28055 -0.599609,-1.81055 0.08806,-0.0652 0.119689,-0.0655 0.212891,-0.13867 0.805023,-0.63208 2.029495,-1.71919 2.560547,-3.75196 0.240124,-0.91915 0.219841,-1.75356 0.113281,-2.5332 0.702578,-0.27571 1.890086,-0.89624 3.291015,-3.00977 0.512772,-0.77359 0.64428,-1.36719 0.816407,-1.9707 0.154614,-0.0784 0.246081,-0.0595 0.408203,-0.15625 0.08161,-0.0487 0.08169,-0.0897 0.158203,-0.13867 0.609991,0.3017 1.411145,0.65606 3.134766,0.45508 0.280516,-0.0327 0.540425,-0.0349 1.210937,-0.21875 0.670512,-0.18387 2.08358,-0.95344 2.748047,-1.71875 0.537417,-0.61898 0.522197,-0.61044 0.494141,-0.58789 0.842813,0.25288 1.937792,0.391 3.517578,0.0644 0.446959,-0.0924 0.786747,-0.28041 1.162109,-0.4375 0.617382,0.57842 1.424748,1.19021 2.939453,1.50391 0.393124,0.0814 0.764728,0.0589 1.142578,0.0625 0.230397,0.34552 0.416286,0.68446 0.791016,1.04882 1.159958,1.12787 3.16795,1.81036 4.65625,1.75391 2.756209,-0.10454 4.454039,-2.0201 5.138672,-3.09375 0.684633,-1.07364 0.943424,-1.87563 1.185547,-2.554687 0.05648,-0.158403 0.07143,-0.20338 0.121093,-0.345703 0.977837,-0.122958 2.268969,-0.2397 3.978516,-0.837891 1.737981,-0.608139 3.396541,-1.15243 5.138681,-1.751953 z m 40.23437,1.291016 c 0.19949,0.360996 0.17371,0.508522 0.082,0.230469 -0.0117,-0.03558 -0.0691,-0.180177 -0.082,-0.230469 z m -70.080078,3.281248 c 0.01819,0.006 0.04403,0.008 0.0625,0.0137 -0.143951,0.15387 -0.329177,0.35315 -0.400391,0.42188 0.215311,-0.20781 0.170375,-0.25469 0.337891,-0.43555 z m 68.826168,0.084 c 0.002,-1.9e-4 0.006,1.8e-4 0.008,0 -0.0765,0.0182 -0.30534,0.0323 -0.35157,0.0449 -0.2524,0.0691 -0.22181,0.018 0.34375,-0.0449 z m -76.507809,0.008 c 0.01429,-0.28938 0.09414,-0.14889 -0.01367,0.24805 -2.12e-4,-0.0572 0.0115,-0.20415 0.01367,-0.24805 z m 69.851559,0.86523 c 0.27464,-0.18354 0.19497,-0.0269 -0.21289,0.12696 0.0449,-0.0314 0.17738,-0.10322 0.21289,-0.12696 z m -71.460934,0.23243 c 0.01492,0.008 0.05282,0.0283 0.06836,0.0371 -0.416129,-0.0836 -0.408671,-0.2277 -0.06836,-0.0371 z m 83.091794,13.19726 c 0.0539,0.0195 0.18738,0.20529 0.25,0.23633 -0.1778,-0.0367 -0.4959,-0.14715 -0.58398,-0.16797 -0.23118,-0.0547 -0.0821,-0.21915 0.33398,-0.0684 z m -4.69531,4.81836 c 0.18306,-0.2037 0.25215,-0.10607 0.043,0.0879 -0.0281,0.026 -0.11587,0.1367 -0.15039,0.16797 0.0316,-0.0441 0.0803,-0.22571 0.10742,-0.25586 z m 6.38672,6.14844 c -0.50686,-0.41324 -0.27432,-0.47795 0.63867,0.6914 0.0735,0.0941 0.0782,0.23246 0.14258,0.33594 -0.28911,-0.35576 -0.54834,-0.83745 -0.78125,-1.02734 z m -6.12695,3.51367 c 0.0994,0.069 0.31611,0.28462 0.37695,0.32617 0.24386,0.16654 -0.005,0.065 -0.37695,-0.32617 z m -3.05469,25.58008 c 0.006,0.0598 0.0352,0.24966 0.0371,0.28711 0.006,0.12438 -0.0878,0.036 -0.0371,-0.28711 z"
         id="path16343" /><path
         style="color:#000000;fill:#000000;-inkscape-stroke:none"
         d="m 81.560547,200.88281 -10.455078,0.98242 3.384765,36.0625 0.753907,1.11329 c 0,0 0.831513,1.10928 1.830078,1.94335 0.998564,0.83408 2.423516,1.77701 4.373047,2.64844 3.899061,1.74286 9.857755,3.20117 18.978514,3.20117 9.24081,0 15.02256,-1.78868 18.71875,-4.16601 1.8481,-1.18867 3.13444,-2.52376 3.95508,-3.69922 0.82064,-1.17546 1.3125,-2.67773 1.3125,-2.67773 l 0.13281,-0.49415 2.375,-33.95703 -10.47461,-0.73242 -2.24414,32.09961 c -0.1291,0.15024 -0.20414,0.28857 -0.73633,0.63086 -1.48249,0.95351 -5.16018,2.49609 -13.03906,2.49609 -7.998923,0 -12.456386,-1.28632 -14.695311,-2.28711 -0.650771,-0.29089 -0.796812,-0.44214 -1.119141,-0.65234 z"
         id="path17087" /><path
         style="color:#000000;fill:#000000;-inkscape-stroke:none"
         d="m 81.392578,98.066406 c -3.853496,9.052904 -5.194707,18.207484 -6.791016,26.861324 -3.644862,13.36085 -7.530799,19.95091 -9.511718,26.41602 -0.994113,3.24448 -1.403422,6.91044 -0.226563,10.45312 1.176859,3.54269 3.518455,6.53111 6.869141,9.90625 l 1.496094,1.50782 36.974614,0.74609 -9.44141,-9.26367 c -3.318121,-3.25513 -5.252449,-5.42244 -5.951173,-6.5918 -0.698725,-1.16935 -0.675558,-1.04134 -0.388672,-2.52929 0.550068,-2.85298 4.222911,-10.48862 8.835935,-24.87891 1.64408,-1.36245 3.06318,-2.9146 3.87696,-4.65625 1.1058,-2.36667 1.41611,-4.63847 1.66015,-6.79883 0.4881,-4.32071 0.62149,-8.6253 3.02539,-14.91211 l -9.80859,-3.75 c -2.957756,7.73528 -3.236369,13.81739 -3.650392,17.48242 -0.207011,1.83252 -0.469154,2.95303 -0.740234,3.53321 -0.271081,0.58017 -0.444426,0.88107 -1.564453,1.55664 l -1.705079,1.02734 -0.59375,1.90039 c -4.696249,15.01018 -8.40375,21.06421 -9.646484,27.50977 -0.587402,3.04661 -0.03524,6.52296 1.496094,9.37304 L 77.875,162.80273 c -1.706026,-1.92657 -2.756188,-3.44135 -3.046875,-4.3164 -0.368463,-1.10918 -0.364551,-1.89497 0.300781,-4.06641 1.330664,-4.34287 5.725933,-12.43855 9.646485,-26.87109 l 0.05469,-0.20703 0.03906,-0.21289 c 1.664159,-8.97754 2.969312,-17.39342 6.185546,-24.94922 z"
         id="path17089" /><path
         style="color:#000000;fill:#000000;stroke-linecap:round;stroke-linejoin:round;-inkscape-stroke:none"
         d="m 68.580078,161.92773 a 5.25,5.25 0 0 0 -5.816406,4.61329 5.25,5.25 0 0 0 4.613281,5.8164 l 7.480469,0.86328 a 5.250525,5.250525 0 0 0 0.496094,0.0332 l 20.976562,0.42382 a 5.250525,5.250525 0 0 0 0.02539,0 l 12.988282,0.19922 a 5.250525,5.250525 0 0 0 0.47656,-0.0156 l 18.02735,-1.36524 a 5.25,5.25 0 0 0 4.83789,-5.63281 5.25,5.25 0 0 0 -5.63086,-4.83789 l -17.78906,1.34766 -12.736334,-0.19336 -20.716797,-0.41797 z"
         id="path20017" /></g></g></svg>
